<svg width="647" height="505" viewBox="0 0 647 505" fill="none" xmlns="http://www.w3.org/2000/svg">
<rect x="0.5" y="0.5" width="349" height="96" rx="19.5" fill="#6D4BC4" fill-opacity="0.2"/>
<rect x="0.5" y="0.5" width="349" height="96" rx="19.5" stroke="#D8D8D8"/>
<path d="M33.32 55.5V42.3L34.18 43.24H30.16V41.5H35.3V55.5H33.32ZM57.2734 49.82C56.4868 50.1533 55.7201 50.4067 54.9734 50.58C54.2401 50.74 53.5268 50.82 52.8334 50.82C51.1268 50.82 49.8001 50.4067 48.8534 49.58C47.9201 48.7533 47.4534 47.5733 47.4534 46.04V41.5H49.4134V45.82C49.4134 46.86 49.7334 47.66 50.3734 48.22C51.0134 48.78 51.9068 49.06 53.0534 49.06C53.7334 49.06 54.4268 48.9733 55.1334 48.8C55.8534 48.6267 56.5534 48.3733 57.2334 48.04L57.2734 49.82ZM56.9334 55.5V41.5H58.9134V55.5H56.9334ZM67.94 55.5V42.72L68.44 43.24H63.16V41.5H74.7V43.24H69.42L69.9 42.72V55.5H67.94ZM80.7508 47.54H87.9508V49.24H80.7508V47.54ZM80.9308 53.76H89.0908V55.5H78.9308V41.5H88.8108V43.24H80.9308V53.76ZM104.072 41.5H106.072V55.5H104.072V41.5ZM96.0316 55.5H94.0316V41.5H96.0316V55.5ZM104.252 49.26H95.8316V47.52H104.252V49.26ZM112.238 55.5V41.5H114.218V52.3L122.498 41.5H124.338V55.5H122.378V44.72L114.078 55.5H112.238ZM132.323 47.54H139.523V49.24H132.323V47.54ZM132.503 53.76H140.663V55.5H130.503V41.5H140.383V43.24H132.503V53.76ZM162.075 54.56V43.24H155.935L155.835 46.18C155.795 47.1667 155.728 48.1133 155.635 49.02C155.555 49.9267 155.435 50.7467 155.275 51.48C155.115 52.2 154.888 52.7933 154.595 53.26C154.315 53.7267 153.955 54.0133 153.515 54.12L151.355 53.76C151.875 53.8 152.301 53.6267 152.635 53.24C152.981 52.84 153.248 52.2867 153.435 51.58C153.635 50.86 153.781 50.0267 153.875 49.08C153.968 48.12 154.035 47.0933 154.075 46L154.215 41.5H164.055V54.56H162.075ZM150.855 58.56L150.875 53.76H166.115V58.56H164.255V55.5H152.735L152.715 58.56H150.855ZM176.949 55.66C175.882 55.66 174.889 55.48 173.969 55.12C173.062 54.76 172.275 54.26 171.609 53.62C170.942 52.9667 170.422 52.2067 170.049 51.34C169.675 50.4733 169.489 49.5267 169.489 48.5C169.489 47.4733 169.675 46.5267 170.049 45.66C170.422 44.7933 170.942 44.04 171.609 43.4C172.275 42.7467 173.062 42.24 173.969 41.88C174.875 41.52 175.869 41.34 176.949 41.34C178.015 41.34 178.995 41.52 179.889 41.88C180.795 42.2267 181.582 42.7267 182.249 43.38C182.929 44.02 183.449 44.7733 183.809 45.64C184.182 46.5067 184.369 47.46 184.369 48.5C184.369 49.54 184.182 50.4933 183.809 51.36C183.449 52.2267 182.929 52.9867 182.249 53.64C181.582 54.28 180.795 54.78 179.889 55.14C178.995 55.4867 178.015 55.66 176.949 55.66ZM176.949 53.88C177.722 53.88 178.435 53.7467 179.089 53.48C179.755 53.2133 180.329 52.84 180.809 52.36C181.302 51.8667 181.682 51.2933 181.949 50.64C182.229 49.9867 182.369 49.2733 182.369 48.5C182.369 47.7267 182.229 47.0133 181.949 46.36C181.682 45.7067 181.302 45.14 180.809 44.66C180.329 44.1667 179.755 43.7867 179.089 43.52C178.435 43.2533 177.722 43.12 176.949 43.12C176.162 43.12 175.435 43.2533 174.769 43.52C174.115 43.7867 173.542 44.1667 173.049 44.66C172.555 45.14 172.169 45.7067 171.889 46.36C171.622 47.0133 171.489 47.7267 171.489 48.5C171.489 49.2733 171.622 49.9867 171.889 50.64C172.169 51.2933 172.555 51.8667 173.049 52.36C173.542 52.84 174.115 53.2133 174.769 53.48C175.435 53.7467 176.162 53.88 176.949 53.88ZM198.822 55.5L193.742 48.6L195.362 47.6L201.102 55.5H198.822ZM189.402 55.5V41.5H191.362V55.5H189.402ZM190.762 49.34V47.58H195.302V49.34H190.762ZM195.542 48.72L193.702 48.44L198.722 41.5H200.862L195.542 48.72ZM204.99 53.74C205.683 53.9933 206.323 54.06 206.91 53.94C207.497 53.8067 208.023 53.36 208.49 52.6L209.17 51.52L209.37 51.3L214.51 41.5H216.49L210.27 53.02C209.803 53.9 209.257 54.5667 208.63 55.02C208.017 55.46 207.35 55.7 206.63 55.74C205.923 55.7933 205.203 55.66 204.47 55.34L204.99 53.74ZM209.31 53.08L203.17 41.5H205.31L210.41 51.48L209.31 53.08ZM220.365 55.5V41.5H222.005L228.285 52.08H227.405L233.605 41.5H235.245L235.265 55.5H233.345L233.325 44.52H233.785L228.265 53.8H227.345L221.785 44.52H222.285V55.5H220.365ZM243.243 47.54H250.443V49.24H243.243V47.54ZM243.423 53.76H251.583V55.5H241.423V41.5H251.303V43.24H243.423V53.76ZM266.564 41.5H268.564V55.5H266.564V41.5ZM258.524 55.5H256.524V41.5H258.524V55.5ZM266.744 49.26H258.324V47.52H266.744V49.26ZM277.59 55.5V42.72L278.09 43.24H272.81V41.5H284.35V43.24H279.07L279.55 42.72V55.5H277.59ZM294.685 55.66C293.619 55.66 292.625 55.48 291.705 55.12C290.799 54.76 290.012 54.26 289.345 53.62C288.679 52.9667 288.159 52.2067 287.785 51.34C287.412 50.4733 287.225 49.5267 287.225 48.5C287.225 47.4733 287.412 46.5267 287.785 45.66C288.159 44.7933 288.679 44.04 289.345 43.4C290.012 42.7467 290.799 42.24 291.705 41.88C292.612 41.52 293.605 41.34 294.685 41.34C295.752 41.34 296.732 41.52 297.625 41.88C298.532 42.2267 299.319 42.7267 299.985 43.38C300.665 44.02 301.185 44.7733 301.545 45.64C301.919 46.5067 302.105 47.46 302.105 48.5C302.105 49.54 301.919 50.4933 301.545 51.36C301.185 52.2267 300.665 52.9867 299.985 53.64C299.319 54.28 298.532 54.78 297.625 55.14C296.732 55.4867 295.752 55.66 294.685 55.66ZM294.685 53.88C295.459 53.88 296.172 53.7467 296.825 53.48C297.492 53.2133 298.065 52.84 298.545 52.36C299.039 51.8667 299.419 51.2933 299.685 50.64C299.965 49.9867 300.105 49.2733 300.105 48.5C300.105 47.7267 299.965 47.0133 299.685 46.36C299.419 45.7067 299.039 45.14 298.545 44.66C298.065 44.1667 297.492 43.7867 296.825 43.52C296.172 43.2533 295.459 43.12 294.685 43.12C293.899 43.12 293.172 43.2533 292.505 43.52C291.852 43.7867 291.279 44.1667 290.785 44.66C290.292 45.14 289.905 45.7067 289.625 46.36C289.359 47.0133 289.225 47.7267 289.225 48.5C289.225 49.2733 289.359 49.9867 289.625 50.64C289.905 51.2933 290.292 51.8667 290.785 52.36C291.279 52.84 291.852 53.2133 292.505 53.48C293.172 53.7467 293.899 53.88 294.685 53.88ZM307.139 55.5V41.5H313.159C314.679 41.5 315.872 41.8067 316.739 42.42C317.605 43.0333 318.039 43.9267 318.039 45.1C318.039 46.2467 317.625 47.1267 316.799 47.74C315.972 48.34 314.885 48.64 313.539 48.64L313.899 48.04C315.459 48.04 316.652 48.3533 317.479 48.98C318.319 49.5933 318.739 50.4933 318.739 51.68C318.739 52.88 318.299 53.82 317.419 54.5C316.552 55.1667 315.259 55.5 313.539 55.5H307.139ZM309.119 53.92H313.499C314.565 53.92 315.365 53.7267 315.899 53.34C316.445 52.94 316.719 52.3333 316.719 51.52C316.719 50.7067 316.445 50.1133 315.899 49.74C315.365 49.3667 314.565 49.18 313.499 49.18H309.119V53.92ZM309.119 47.66H313.019C313.992 47.66 314.732 47.4667 315.239 47.08C315.759 46.6933 316.019 46.1267 316.019 45.38C316.019 44.62 315.759 44.0467 315.239 43.66C314.732 43.2733 313.992 43.08 313.019 43.08H309.119V47.66Z" fill="white"/>
<rect x="297.5" y="135.5" width="349" height="96" rx="19.5" fill="#6D4BC4" fill-opacity="0.2"/>
<rect x="297.5" y="135.5" width="349" height="96" rx="19.5" stroke="#D8D8D8"/>
<path d="M322.74 190.5V189.14L328.44 183.64C328.947 183.16 329.32 182.74 329.56 182.38C329.813 182.007 329.98 181.667 330.06 181.36C330.153 181.04 330.2 180.733 330.2 180.44C330.2 179.72 329.947 179.153 329.44 178.74C328.933 178.327 328.193 178.12 327.22 178.12C326.473 178.12 325.8 178.247 325.2 178.5C324.6 178.74 324.08 179.12 323.64 179.64L322.28 178.46C322.813 177.78 323.527 177.26 324.42 176.9C325.327 176.527 326.32 176.34 327.4 176.34C328.373 176.34 329.22 176.5 329.94 176.82C330.66 177.127 331.213 177.573 331.6 178.16C332 178.747 332.2 179.44 332.2 180.24C332.2 180.693 332.14 181.14 332.02 181.58C331.9 182.02 331.673 182.487 331.34 182.98C331.007 183.473 330.527 184.027 329.9 184.64L324.82 189.54L324.34 188.76H332.8V190.5H322.74ZM344.635 190.5V176.5H346.615V187.3L354.895 176.5H356.735V190.5H354.775V179.72L346.475 190.5H344.635ZM361.36 188.98L362.06 187.5C362.674 187.98 363.347 188.34 364.08 188.58C364.827 188.82 365.567 188.947 366.3 188.96C367.034 188.96 367.707 188.86 368.32 188.66C368.947 188.46 369.447 188.16 369.82 187.76C370.194 187.36 370.38 186.867 370.38 186.28C370.38 185.56 370.087 185.013 369.5 184.64C368.927 184.267 368.127 184.08 367.1 184.08H363.98V182.46H366.96C367.854 182.46 368.547 182.28 369.04 181.92C369.547 181.547 369.8 181.033 369.8 180.38C369.8 179.887 369.647 179.473 369.34 179.14C369.047 178.793 368.64 178.533 368.12 178.36C367.614 178.187 367.034 178.1 366.38 178.1C365.74 178.087 365.08 178.173 364.4 178.36C363.72 178.533 363.067 178.813 362.44 179.2L361.8 177.56C362.654 177.08 363.54 176.747 364.46 176.56C365.394 176.36 366.294 176.3 367.16 176.38C368.027 176.447 368.807 176.647 369.5 176.98C370.207 177.3 370.767 177.727 371.18 178.26C371.607 178.78 371.82 179.407 371.82 180.14C371.82 180.807 371.647 181.4 371.3 181.92C370.954 182.427 370.474 182.82 369.86 183.1C369.247 183.367 368.534 183.5 367.72 183.5L367.8 182.96C368.734 182.96 369.54 183.113 370.22 183.42C370.914 183.713 371.447 184.133 371.82 184.68C372.207 185.227 372.4 185.86 372.4 186.58C372.4 187.26 372.227 187.867 371.88 188.4C371.534 188.92 371.06 189.36 370.46 189.72C369.874 190.067 369.2 190.32 368.44 190.48C367.694 190.64 366.907 190.693 366.08 190.64C365.254 190.587 364.434 190.427 363.62 190.16C362.82 189.893 362.067 189.5 361.36 188.98ZM377.532 190.5V176.5H383.552C385.072 176.5 386.266 176.807 387.132 177.42C387.999 178.033 388.432 178.927 388.432 180.1C388.432 181.247 388.019 182.127 387.192 182.74C386.366 183.34 385.279 183.64 383.932 183.64L384.292 183.04C385.852 183.04 387.046 183.353 387.872 183.98C388.712 184.593 389.132 185.493 389.132 186.68C389.132 187.88 388.692 188.82 387.812 189.5C386.946 190.167 385.652 190.5 383.932 190.5H377.532ZM379.512 188.92H383.892C384.959 188.92 385.759 188.727 386.292 188.34C386.839 187.94 387.112 187.333 387.112 186.52C387.112 185.707 386.839 185.113 386.292 184.74C385.759 184.367 384.959 184.18 383.892 184.18H379.512V188.92ZM379.512 182.66H383.412C384.386 182.66 385.126 182.467 385.632 182.08C386.152 181.693 386.412 181.127 386.412 180.38C386.412 179.62 386.152 179.047 385.632 178.66C385.126 178.273 384.386 178.08 383.412 178.08H379.512V182.66ZM393.614 190.66C393.414 190.66 393.214 190.647 393.014 190.62C392.814 190.593 392.594 190.553 392.354 190.5L392.494 188.72C392.707 188.773 392.92 188.8 393.134 188.8C393.72 188.8 394.187 188.567 394.534 188.1C394.88 187.633 395.134 186.927 395.294 185.98C395.467 185.033 395.58 183.84 395.634 182.4L395.854 176.5H405.714V190.5H403.754V177.72L404.234 178.24H397.134L397.574 177.7L397.414 182.34C397.374 183.727 397.28 184.94 397.134 185.98C396.987 187.02 396.767 187.887 396.474 188.58C396.18 189.273 395.8 189.793 395.334 190.14C394.88 190.487 394.307 190.66 393.614 190.66ZM413.695 182.54H420.895V184.24H413.695V182.54ZM413.875 188.76H422.035V190.5H411.875V176.5H421.755V178.24H413.875V188.76ZM435.695 184.82C434.909 185.153 434.142 185.407 433.395 185.58C432.662 185.74 431.949 185.82 431.255 185.82C429.549 185.82 428.222 185.407 427.275 184.58C426.342 183.753 425.875 182.573 425.875 181.04V176.5H427.835V180.82C427.835 181.86 428.155 182.66 428.795 183.22C429.435 183.78 430.329 184.06 431.475 184.06C432.155 184.06 432.849 183.973 433.555 183.8C434.275 183.627 434.975 183.373 435.655 183.04L435.695 184.82ZM435.355 190.5V176.5H437.335V190.5H435.355ZM445.322 182.54H452.522V184.24H445.322V182.54ZM445.502 188.76H453.662V190.5H443.502V176.5H453.382V178.24H445.502V188.76ZM468.643 176.5H470.643V190.5H468.643V176.5ZM460.603 190.5H458.603V176.5H460.603V190.5ZM468.823 184.26H460.403V182.52H468.823V184.26ZM476.809 190.5V176.5H478.789V187.3L487.069 176.5H488.909V190.5H486.949V179.72L478.649 190.5H476.809ZM496.894 182.54H504.094V184.24H496.894V182.54ZM497.074 188.76H505.234V190.5H495.074V176.5H504.954V178.24H497.074V188.76ZM526.646 189.56V178.24H520.506L520.406 181.18C520.366 182.167 520.299 183.113 520.206 184.02C520.126 184.927 520.006 185.747 519.846 186.48C519.686 187.2 519.459 187.793 519.166 188.26C518.886 188.727 518.526 189.013 518.086 189.12L515.926 188.76C516.446 188.8 516.872 188.627 517.206 188.24C517.552 187.84 517.819 187.287 518.006 186.58C518.206 185.86 518.352 185.027 518.446 184.08C518.539 183.12 518.606 182.093 518.646 181L518.786 176.5H528.626V189.56H526.646ZM515.426 193.56L515.446 188.76H530.686V193.56H528.826V190.5H517.306L517.286 193.56H515.426ZM533.28 190.5L539.62 176.5H541.6L547.96 190.5H545.86L540.2 177.62H541L535.34 190.5H533.28ZM535.98 187L536.52 185.4H544.4L544.98 187H535.98ZM562.216 176.5H564.216V190.5H562.216V176.5ZM554.176 190.5H552.176V176.5H554.176V190.5ZM562.396 184.26H553.976V182.52H562.396V184.26ZM580.422 176.5H582.422V190.5H580.422V176.5ZM572.382 190.5H570.382V176.5H572.382V190.5ZM580.602 184.26H572.182V182.52H580.602V184.26ZM594.729 181.38C596.382 181.38 597.655 181.753 598.549 182.5C599.442 183.233 599.889 184.333 599.889 185.8C599.889 187.347 599.402 188.52 598.429 189.32C597.469 190.107 596.115 190.5 594.369 190.5H588.589V176.5H590.569V181.38H594.729ZM594.289 188.92C595.449 188.92 596.335 188.66 596.949 188.14C597.575 187.62 597.889 186.853 597.889 185.84C597.889 184.853 597.582 184.127 596.969 183.66C596.355 183.193 595.462 182.96 594.289 182.96H590.569V188.92H594.289ZM602.109 190.5V176.5H604.089V190.5H602.109ZM608.752 176.5H611.052L614.712 181.62L618.372 176.5H620.712L615.972 183.22L621.092 190.5H618.732L614.712 184.92L610.712 190.5H608.412L613.512 183.3L608.752 176.5Z" fill="white"/>
<rect x="0.5" y="270.5" width="381" height="96" rx="19.5" fill="#6D4BC4" fill-opacity="0.2"/>
<rect x="0.5" y="270.5" width="381" height="96" rx="19.5" stroke="#D8D8D8"/>
<path d="M16.74 325.66C15.7533 325.66 14.7933 325.507 13.86 325.2C12.94 324.893 12.1867 324.48 11.6 323.96L12.52 322.38C12.9867 322.82 13.5933 323.18 14.34 323.46C15.0867 323.74 15.8867 323.88 16.74 323.88C17.78 323.88 18.5867 323.66 19.16 323.22C19.7467 322.767 20.04 322.16 20.04 321.4C20.04 320.667 19.76 320.08 19.2 319.64C18.6533 319.187 17.78 318.96 16.58 318.96H15.46V317.56L19.62 312.44L19.9 313.24H12.24V311.5H21.48V312.86L17.34 317.96L16.3 317.34H16.96C18.6533 317.34 19.92 317.72 20.76 318.48C21.6133 319.24 22.04 320.207 22.04 321.38C22.04 322.167 21.8467 322.887 21.46 323.54C21.0733 324.193 20.4867 324.713 19.7 325.1C18.9267 325.473 17.94 325.66 16.74 325.66ZM34.0964 325.5V311.5H46.1564V325.5H44.1964V312.72L44.6764 313.24H35.5764L36.0764 312.72V325.5H34.0964ZM52.3222 325.5V311.5H57.7822C59.0089 311.5 60.0555 311.693 60.9222 312.08C61.7889 312.467 62.4555 313.027 62.9222 313.76C63.3889 314.493 63.6222 315.367 63.6222 316.38C63.6222 317.393 63.3889 318.267 62.9222 319C62.4555 319.72 61.7889 320.28 60.9222 320.68C60.0555 321.067 59.0089 321.26 57.7822 321.26H53.4222L54.3222 320.32V325.5H52.3222ZM54.3222 320.52L53.4222 319.52H57.7222C59.0022 319.52 59.9689 319.247 60.6222 318.7C61.2889 318.153 61.6222 317.38 61.6222 316.38C61.6222 315.38 61.2889 314.607 60.6222 314.06C59.9689 313.513 59.0022 313.24 57.7222 313.24H53.4222L54.3222 312.24V320.52ZM74.6995 325.66C73.6329 325.66 72.6395 325.48 71.7195 325.12C70.8129 324.76 70.0262 324.26 69.3595 323.62C68.6929 322.967 68.1729 322.207 67.7995 321.34C67.4262 320.473 67.2395 319.527 67.2395 318.5C67.2395 317.473 67.4262 316.527 67.7995 315.66C68.1729 314.793 68.6929 314.04 69.3595 313.4C70.0262 312.747 70.8129 312.24 71.7195 311.88C72.6262 311.52 73.6195 311.34 74.6995 311.34C75.7662 311.34 76.7462 311.52 77.6395 311.88C78.5462 312.227 79.3329 312.727 79.9995 313.38C80.6795 314.02 81.1995 314.773 81.5595 315.64C81.9329 316.507 82.1195 317.46 82.1195 318.5C82.1195 319.54 81.9329 320.493 81.5595 321.36C81.1995 322.227 80.6795 322.987 79.9995 323.64C79.3329 324.28 78.5462 324.78 77.6395 325.14C76.7462 325.487 75.7662 325.66 74.6995 325.66ZM74.6995 323.88C75.4729 323.88 76.1862 323.747 76.8395 323.48C77.5062 323.213 78.0795 322.84 78.5595 322.36C79.0529 321.867 79.4329 321.293 79.6995 320.64C79.9795 319.987 80.1195 319.273 80.1195 318.5C80.1195 317.727 79.9795 317.013 79.6995 316.36C79.4329 315.707 79.0529 315.14 78.5595 314.66C78.0795 314.167 77.5062 313.787 76.8395 313.52C76.1862 313.253 75.4729 313.12 74.6995 313.12C73.9129 313.12 73.1862 313.253 72.5195 313.52C71.8662 313.787 71.2929 314.167 70.7995 314.66C70.3062 315.14 69.9195 315.707 69.6395 316.36C69.3729 317.013 69.2395 317.727 69.2395 318.5C69.2395 319.273 69.3729 319.987 69.6395 320.64C69.9195 321.293 70.3062 321.867 70.7995 322.36C71.2929 322.84 71.8662 323.213 72.5195 323.48C73.1862 323.747 73.9129 323.88 74.6995 323.88ZM87.1527 325.5V311.5H93.1727C94.6927 311.5 95.886 311.807 96.7527 312.42C97.6193 313.033 98.0527 313.927 98.0527 315.1C98.0527 316.247 97.6393 317.127 96.8127 317.74C95.986 318.34 94.8993 318.64 93.5527 318.64L93.9127 318.04C95.4727 318.04 96.666 318.353 97.4927 318.98C98.3327 319.593 98.7527 320.493 98.7527 321.68C98.7527 322.88 98.3127 323.82 97.4327 324.5C96.566 325.167 95.2727 325.5 93.5527 325.5H87.1527ZM89.1327 323.92H93.5127C94.5793 323.92 95.3793 323.727 95.9127 323.34C96.4593 322.94 96.7327 322.333 96.7327 321.52C96.7327 320.707 96.4593 320.113 95.9127 319.74C95.3793 319.367 94.5793 319.18 93.5127 319.18H89.1327V323.92ZM89.1327 317.66H93.0327C94.006 317.66 94.746 317.467 95.2527 317.08C95.7727 316.693 96.0327 316.127 96.0327 315.38C96.0327 314.62 95.7727 314.047 95.2527 313.66C94.746 313.273 94.006 313.08 93.0327 313.08H89.1327V317.66ZM105.714 317.54H112.914V319.24H105.714V317.54ZM105.894 323.76H114.054V325.5H103.894V311.5H113.774V313.24H105.894V323.76ZM118.995 325.5V311.5H124.455C125.682 311.5 126.728 311.693 127.595 312.08C128.462 312.467 129.128 313.027 129.595 313.76C130.062 314.493 130.295 315.367 130.295 316.38C130.295 317.393 130.062 318.267 129.595 319C129.128 319.72 128.462 320.28 127.595 320.68C126.728 321.067 125.682 321.26 124.455 321.26H120.095L120.995 320.32V325.5H118.995ZM120.995 320.52L120.095 319.52H124.395C125.675 319.52 126.642 319.247 127.295 318.7C127.962 318.153 128.295 317.38 128.295 316.38C128.295 315.38 127.962 314.607 127.295 314.06C126.642 313.513 125.675 313.24 124.395 313.24H120.095L120.995 312.24V320.52ZM144.297 325.5L139.217 318.6L140.837 317.6L146.577 325.5H144.297ZM134.877 325.5V311.5H136.837V325.5H134.877ZM136.237 319.34V317.58H140.777V319.34H136.237ZM141.017 318.72L139.177 318.44L144.197 311.5H146.337L141.017 318.72ZM148.292 325.5L154.632 311.5H156.612L162.972 325.5H160.872L155.212 312.62H156.012L150.352 325.5H148.292ZM150.992 322L151.532 320.4H159.412L159.992 322H150.992ZM184.399 311.5H186.399V325.5H184.399V311.5ZM176.359 325.5H174.359V311.5H176.359V325.5ZM184.579 319.26H176.159V317.52H184.579V319.26ZM190.625 325.5L196.965 311.5H198.945L205.305 325.5H203.205L197.545 312.62H198.345L192.685 325.5H190.625ZM193.325 322L193.865 320.4H201.745L202.325 322H193.325ZM226.732 311.5H228.732V325.5H226.732V311.5ZM218.692 325.5H216.692V311.5H218.692V325.5ZM226.912 319.26H218.492V317.52H226.912V319.26ZM232.959 325.5L239.299 311.5H241.279L247.639 325.5H245.539L239.879 312.62H240.679L235.019 325.5H232.959ZM235.659 322L236.199 320.4H244.079L244.659 322H235.659ZM251.855 325.5V311.5H257.315C258.542 311.5 259.588 311.693 260.455 312.08C261.322 312.467 261.988 313.027 262.455 313.76C262.922 314.493 263.155 315.367 263.155 316.38C263.155 317.393 262.922 318.267 262.455 319C261.988 319.72 261.322 320.28 260.455 320.68C259.588 321.067 258.542 321.26 257.315 321.26H252.955L253.855 320.32V325.5H251.855ZM253.855 320.52L252.955 319.52H257.255C258.535 319.52 259.502 319.247 260.155 318.7C260.822 318.153 261.155 317.38 261.155 316.38C261.155 315.38 260.822 314.607 260.155 314.06C259.502 313.513 258.535 313.24 257.255 313.24H252.955L253.855 312.24V320.52ZM267.385 323.74C268.078 323.993 268.718 324.06 269.305 323.94C269.891 323.807 270.418 323.36 270.885 322.6L271.565 321.52L271.765 321.3L276.905 311.5H278.885L272.665 323.02C272.198 323.9 271.651 324.567 271.025 325.02C270.411 325.46 269.745 325.7 269.025 325.74C268.318 325.793 267.598 325.66 266.865 325.34L267.385 323.74ZM271.705 323.08L265.565 311.5H267.705L272.805 321.48L271.705 323.08ZM291.02 323.76L290.56 324.28V311.5H292.52V324.28L292.02 323.76H298.84L298.34 324.28V311.5H300.3V325.5H282.76V311.5H284.74V324.28L284.24 323.76H291.02ZM308.274 317.54H315.474V319.24H308.274V317.54ZM308.454 323.76H316.614V325.5H306.454V311.5H316.334V313.24H308.454V323.76ZM331.595 311.5H333.595V325.5H331.595V311.5ZM323.555 325.5H321.555V311.5H323.555V325.5ZM331.775 319.26H323.355V317.52H331.775V319.26ZM339.761 325.5V311.5H341.741V322.3L350.021 311.5H351.861V325.5H349.901V314.72L341.601 325.5H339.761ZM366.326 325.5V320.94L366.846 321.42H362.466C361.333 321.42 360.353 321.227 359.526 320.84C358.713 320.453 358.086 319.9 357.646 319.18C357.219 318.447 357.006 317.567 357.006 316.54C357.006 315.473 357.239 314.567 357.706 313.82C358.173 313.06 358.833 312.487 359.686 312.1C360.539 311.7 361.533 311.5 362.666 311.5H368.286V325.5H366.326ZM357.006 325.5L360.466 320.54H362.506L359.126 325.5H357.006ZM366.326 320.3V312.66L366.846 313.24H362.746C361.546 313.24 360.626 313.52 359.986 314.08C359.346 314.627 359.026 315.44 359.026 316.52C359.026 317.547 359.326 318.34 359.926 318.9C360.539 319.46 361.439 319.74 362.626 319.74H366.846L366.326 320.3Z" fill="white"/>
<rect x="332.5" y="405.5" width="279" height="99" rx="19.5" fill="#7759C0" fill-opacity="0.2"/>
<rect x="332.5" y="405.5" width="279" height="99" rx="19.5" stroke="#D8D8D8"/>
<path d="M360.26 458.56V457.16L367.42 448H369.58L362.48 457.16L361.46 456.84H372.64V458.56H360.26ZM368.04 462V458.56L368.1 456.84V453.8H369.98V462H368.04ZM384.03 462V448H393.21L393.19 449.74H385.51L385.99 449.24L386.01 462H384.03ZM401.915 462.16C400.848 462.16 399.855 461.98 398.935 461.62C398.028 461.26 397.242 460.76 396.575 460.12C395.908 459.467 395.388 458.707 395.015 457.84C394.642 456.973 394.455 456.027 394.455 455C394.455 453.973 394.642 453.027 395.015 452.16C395.388 451.293 395.908 450.54 396.575 449.9C397.242 449.247 398.028 448.74 398.935 448.38C399.842 448.02 400.835 447.84 401.915 447.84C402.982 447.84 403.962 448.02 404.855 448.38C405.762 448.727 406.548 449.227 407.215 449.88C407.895 450.52 408.415 451.273 408.775 452.14C409.148 453.007 409.335 453.96 409.335 455C409.335 456.04 409.148 456.993 408.775 457.86C408.415 458.727 407.895 459.487 407.215 460.14C406.548 460.78 405.762 461.28 404.855 461.64C403.962 461.987 402.982 462.16 401.915 462.16ZM401.915 460.38C402.688 460.38 403.402 460.247 404.055 459.98C404.722 459.713 405.295 459.34 405.775 458.86C406.268 458.367 406.648 457.793 406.915 457.14C407.195 456.487 407.335 455.773 407.335 455C407.335 454.227 407.195 453.513 406.915 452.86C406.648 452.207 406.268 451.64 405.775 451.16C405.295 450.667 404.722 450.287 404.055 450.02C403.402 449.753 402.688 449.62 401.915 449.62C401.128 449.62 400.402 449.753 399.735 450.02C399.082 450.287 398.508 450.667 398.015 451.16C397.522 451.64 397.135 452.207 396.855 452.86C396.588 453.513 396.455 454.227 396.455 455C396.455 455.773 396.588 456.487 396.855 457.14C397.135 457.793 397.522 458.367 398.015 458.86C398.508 459.34 399.082 459.713 399.735 459.98C400.402 460.247 401.128 460.38 401.915 460.38ZM417.033 462V449.22L417.533 449.74H412.253V448H423.793V449.74H418.513L418.993 449.22V462H417.033ZM434.128 462.16C433.062 462.16 432.068 461.98 431.148 461.62C430.242 461.26 429.455 460.76 428.788 460.12C428.122 459.467 427.602 458.707 427.228 457.84C426.855 456.973 426.668 456.027 426.668 455C426.668 453.973 426.855 453.027 427.228 452.16C427.602 451.293 428.122 450.54 428.788 449.9C429.455 449.247 430.242 448.74 431.148 448.38C432.055 448.02 433.048 447.84 434.128 447.84C435.195 447.84 436.175 448.02 437.068 448.38C437.975 448.727 438.762 449.227 439.428 449.88C440.108 450.52 440.628 451.273 440.988 452.14C441.362 453.007 441.548 453.96 441.548 455C441.548 456.04 441.362 456.993 440.988 457.86C440.628 458.727 440.108 459.487 439.428 460.14C438.762 460.78 437.975 461.28 437.068 461.64C436.175 461.987 435.195 462.16 434.128 462.16ZM434.128 460.38C434.902 460.38 435.615 460.247 436.268 459.98C436.935 459.713 437.508 459.34 437.988 458.86C438.482 458.367 438.862 457.793 439.128 457.14C439.408 456.487 439.548 455.773 439.548 455C439.548 454.227 439.408 453.513 439.128 452.86C438.862 452.207 438.482 451.64 437.988 451.16C437.508 450.667 436.935 450.287 436.268 450.02C435.615 449.753 434.902 449.62 434.128 449.62C433.342 449.62 432.615 449.753 431.948 450.02C431.295 450.287 430.722 450.667 430.228 451.16C429.735 451.64 429.348 452.207 429.068 452.86C428.802 453.513 428.668 454.227 428.668 455C428.668 455.773 428.802 456.487 429.068 457.14C429.348 457.793 429.735 458.367 430.228 458.86C430.722 459.34 431.295 459.713 431.948 459.98C432.615 460.247 433.342 460.38 434.128 460.38ZM446.582 462V448H452.602C454.122 448 455.315 448.307 456.182 448.92C457.048 449.533 457.482 450.427 457.482 451.6C457.482 452.747 457.068 453.627 456.242 454.24C455.415 454.84 454.328 455.14 452.982 455.14L453.342 454.54C454.902 454.54 456.095 454.853 456.922 455.48C457.762 456.093 458.182 456.993 458.182 458.18C458.182 459.38 457.742 460.32 456.862 461C455.995 461.667 454.702 462 452.982 462H446.582ZM448.562 460.42H452.942C454.008 460.42 454.808 460.227 455.342 459.84C455.888 459.44 456.162 458.833 456.162 458.02C456.162 457.207 455.888 456.613 455.342 456.24C454.808 455.867 454.008 455.68 452.942 455.68H448.562V460.42ZM448.562 454.16H452.462C453.435 454.16 454.175 453.967 454.682 453.58C455.202 453.193 455.462 452.627 455.462 451.88C455.462 451.12 455.202 450.547 454.682 450.16C454.175 449.773 453.435 449.58 452.462 449.58H448.562V454.16ZM469.463 452.88C471.116 452.88 472.39 453.253 473.283 454C474.176 454.733 474.623 455.833 474.623 457.3C474.623 458.847 474.136 460.02 473.163 460.82C472.203 461.607 470.85 462 469.103 462H463.323V448H465.303V452.88H469.463ZM469.023 460.42C470.183 460.42 471.07 460.16 471.683 459.64C472.31 459.12 472.623 458.353 472.623 457.34C472.623 456.353 472.316 455.627 471.703 455.16C471.09 454.693 470.196 454.46 469.023 454.46H465.303V460.42H469.023ZM476.843 462V448H478.823V462H476.843ZM484.986 462V448H486.966V458.8L495.246 448H497.086V462H495.126V451.22L486.826 462H484.986ZM491.006 447.02C489.913 447.02 489.066 446.78 488.466 446.3C487.88 445.82 487.58 445.147 487.566 444.28H488.986C489 444.8 489.186 445.207 489.546 445.5C489.906 445.78 490.393 445.92 491.006 445.92C491.606 445.92 492.086 445.78 492.446 445.5C492.82 445.207 493.013 444.8 493.026 444.28H494.426C494.413 445.147 494.106 445.82 493.506 446.3C492.92 446.78 492.086 447.02 491.006 447.02ZM516.722 462.16C515.656 462.16 514.662 461.98 513.742 461.62C512.836 461.26 512.049 460.76 511.382 460.12C510.716 459.467 510.196 458.707 509.822 457.84C509.449 456.973 509.262 456.027 509.262 455C509.262 453.973 509.449 453.027 509.822 452.16C510.196 451.293 510.716 450.54 511.382 449.9C512.049 449.247 512.836 448.74 513.742 448.38C514.649 448.02 515.642 447.84 516.722 447.84C517.789 447.84 518.769 448.02 519.662 448.38C520.569 448.727 521.356 449.227 522.022 449.88C522.702 450.52 523.222 451.273 523.582 452.14C523.956 453.007 524.142 453.96 524.142 455C524.142 456.04 523.956 456.993 523.582 457.86C523.222 458.727 522.702 459.487 522.022 460.14C521.356 460.78 520.569 461.28 519.662 461.64C518.769 461.987 517.789 462.16 516.722 462.16ZM516.722 460.38C517.496 460.38 518.209 460.247 518.862 459.98C519.529 459.713 520.102 459.34 520.582 458.86C521.076 458.367 521.456 457.793 521.722 457.14C522.002 456.487 522.142 455.773 522.142 455C522.142 454.227 522.002 453.513 521.722 452.86C521.456 452.207 521.076 451.64 520.582 451.16C520.102 450.667 519.529 450.287 518.862 450.02C518.209 449.753 517.496 449.62 516.722 449.62C515.936 449.62 515.209 449.753 514.542 450.02C513.889 450.287 513.316 450.667 512.822 451.16C512.329 451.64 511.942 452.207 511.662 452.86C511.396 453.513 511.262 454.227 511.262 455C511.262 455.773 511.396 456.487 511.662 457.14C511.942 457.793 512.329 458.367 512.822 458.86C513.316 459.34 513.889 459.713 514.542 459.98C515.209 460.247 515.936 460.38 516.722 460.38ZM531.84 462V449.22L532.34 449.74H527.06V448H538.6V449.74H533.32L533.8 449.22V462H531.84ZM551.316 456.32C550.53 456.653 549.763 456.907 549.016 457.08C548.283 457.24 547.57 457.32 546.876 457.32C545.17 457.32 543.843 456.907 542.896 456.08C541.963 455.253 541.496 454.073 541.496 452.54V448H543.456V452.32C543.456 453.36 543.776 454.16 544.416 454.72C545.056 455.28 545.95 455.56 547.096 455.56C547.776 455.56 548.47 455.473 549.176 455.3C549.896 455.127 550.596 454.873 551.276 454.54L551.316 456.32ZM550.976 462V448H552.956V462H550.976ZM560.943 454.04H568.143V455.74H560.943V454.04ZM561.123 460.26H569.283V462H559.123V448H569.003V449.74H561.123V460.26ZM565.943 446.52C565.663 446.52 565.423 446.427 565.223 446.24C565.023 446.04 564.923 445.793 564.923 445.5C564.923 445.193 565.023 444.947 565.223 444.76C565.423 444.56 565.663 444.46 565.943 444.46C566.223 444.46 566.463 444.56 566.663 444.76C566.863 444.947 566.963 445.193 566.963 445.5C566.963 445.793 566.863 446.04 566.663 446.24C566.463 446.427 566.223 446.52 565.943 446.52ZM562.223 446.52C561.943 446.52 561.703 446.427 561.503 446.24C561.303 446.04 561.203 445.793 561.203 445.5C561.203 445.193 561.303 444.947 561.503 444.76C561.703 444.56 561.943 444.46 562.223 444.46C562.503 444.46 562.743 444.56 562.943 444.76C563.143 444.947 563.243 445.193 563.243 445.5C563.243 445.793 563.143 446.04 562.943 446.24C562.743 446.427 562.503 446.52 562.223 446.52ZM577.084 462V449.22L577.584 449.74H572.304V448H583.844V449.74H578.564L579.044 449.22V462H577.084Z" fill="white"/>
<g filter="url(#filter4_d_2_65)">
<path d="M477 42H479V40H477V42ZM475.586 114.914C476.367 115.695 477.633 115.695 478.414 114.914L491.142 102.186C491.923 101.405 491.923 100.139 491.142 99.3579C490.361 98.5768 489.095 98.5768 488.314 99.3579L477 110.672L465.686 99.3579C464.905 98.5768 463.639 98.5768 462.858 99.3579C462.077 100.139 462.077 101.405 462.858 102.186L475.586 114.914ZM372 42V44H477V42V40H372V42ZM477 42H475V113.5H477H479V42H477Z" fill="#6D4BC4" fill-opacity="0.6"/>
</g>
<g filter="url(#filter5_d_2_65)">
<path d="M163 181H161V179H163V181ZM164.414 254.414C163.633 255.195 162.367 255.195 161.586 254.414L148.858 241.686C148.077 240.905 148.077 239.639 148.858 238.858C149.639 238.077 150.905 238.077 151.686 238.858L163 250.172L174.314 238.858C175.095 238.077 176.361 238.077 177.142 238.858C177.923 239.639 177.923 240.905 177.142 241.686L164.414 254.414ZM282 181V183H163V181V179H282V181ZM163 181H165V253H163H161V181H163Z" fill="#6D4BC4" fill-opacity="0.6"/>
</g>
<g filter="url(#filter6_d_2_65)">
<path d="M163 461L163 463L161 463L161 461L163 461ZM314.414 459.586C315.195 460.367 315.195 461.633 314.414 462.414L301.686 475.142C300.905 475.923 299.639 475.923 298.858 475.142C298.077 474.361 298.077 473.095 298.858 472.314L310.172 461L298.858 449.686C298.077 448.905 298.077 447.639 298.858 446.858C299.639 446.077 300.905 446.077 301.686 446.858L314.414 459.586ZM163 369L165 369L165 461L163 461L161 461L161 369L163 369ZM163 461L163 459L313 459L313 461L313 463L163 463L163 461Z" fill="#6D4BC4" fill-opacity="0.6"/>
</g>
<defs>
<filter id="filter4_d_2_65" x="368" y="40" width="127.728" height="83.5" filterUnits="userSpaceOnUse" color-interpolation-filters="sRGB">
<feFlood flood-opacity="0" result="BackgroundImageFix"/>
<feColorMatrix in="SourceAlpha" type="matrix" values="0 0 0 0 0 0 0 0 0 0 0 0 0 0 0 0 0 0 127 0" result="hardAlpha"/>
<feOffset dy="4"/>
<feGaussianBlur stdDeviation="2"/>
<feComposite in2="hardAlpha" operator="out"/>
<feColorMatrix type="matrix" values="0 0 0 0 0 0 0 0 0 0 0 0 0 0 0 0 0 0 0.25 0"/>
<feBlend mode="normal" in2="BackgroundImageFix" result="effect1_dropShadow_2_65"/>
<feBlend mode="normal" in="SourceGraphic" in2="effect1_dropShadow_2_65" result="shape"/>
</filter>
<filter id="filter5_d_2_65" x="144.272" y="179" width="141.728" height="84" filterUnits="userSpaceOnUse" color-interpolation-filters="sRGB">
<feFlood flood-opacity="0" result="BackgroundImageFix"/>
<feColorMatrix in="SourceAlpha" type="matrix" values="0 0 0 0 0 0 0 0 0 0 0 0 0 0 0 0 0 0 127 0" result="hardAlpha"/>
<feOffset dy="4"/>
<feGaussianBlur stdDeviation="2"/>
<feComposite in2="hardAlpha" operator="out"/>
<feColorMatrix type="matrix" values="0 0 0 0 0 0 0 0 0 0 0 0 0 0 0 0 0 0 0.25 0"/>
<feBlend mode="normal" in2="BackgroundImageFix" result="effect1_dropShadow_2_65"/>
<feBlend mode="normal" in="SourceGraphic" in2="effect1_dropShadow_2_65" result="shape"/>
</filter>
<filter id="filter6_d_2_65" x="157" y="369" width="162" height="114.728" filterUnits="userSpaceOnUse" color-interpolation-filters="sRGB">
<feFlood flood-opacity="0" result="BackgroundImageFix"/>
<feColorMatrix in="SourceAlpha" type="matrix" values="0 0 0 0 0 0 0 0 0 0 0 0 0 0 0 0 0 0 127 0" result="hardAlpha"/>
<feOffset dy="4"/>
<feGaussianBlur stdDeviation="2"/>
<feComposite in2="hardAlpha" operator="out"/>
<feColorMatrix type="matrix" values="0 0 0 0 0 0 0 0 0 0 0 0 0 0 0 0 0 0 0.25 0"/>
<feBlend mode="normal" in2="BackgroundImageFix" result="effect1_dropShadow_2_65"/>
<feBlend mode="normal" in="SourceGraphic" in2="effect1_dropShadow_2_65" result="shape"/>
</filter>
</defs>
</svg>
