<svg width="24" height="24" viewBox="0 0 24 24" fill="none" xmlns="http://www.w3.org/2000/svg">
<path fill-rule="evenodd" clip-rule="evenodd" d="M17.6695 13.4329C17.458 13.3009 17.1714 13.2268 16.8726 13.2268C16.5738 13.2268 16.2871 13.3009 16.0757 13.4329L13.1137 15.2844V6.70487C13.1137 6.51792 12.9949 6.33864 12.7834 6.20645C12.572 6.07426 12.2851 6 11.9861 6C11.687 6 11.4002 6.07426 11.1887 6.20645C10.9772 6.33864 10.8584 6.51792 10.8584 6.70487V15.2844L7.89641 13.4329C7.68264 13.3084 7.39991 13.2407 7.10777 13.2439C6.81563 13.2471 6.53689 13.3211 6.33028 13.4502C6.12368 13.5794 6.00533 13.7536 6.00018 13.9362C5.99502 14.1188 6.10346 14.2955 6.30265 14.4292L11.9861 17.9826L17.6695 14.4301C17.7743 14.3646 17.8574 14.2869 17.9141 14.2014C17.9708 14.1158 18 14.0241 18 13.9315C18 13.8389 17.9708 13.7472 17.9141 13.6617C17.8574 13.5761 17.7743 13.4984 17.6695 13.4329Z" fill="#7759C0"/>
</svg>
