<svg width="48" height="48" viewBox="0 0 48 48" fill="none" xmlns="http://www.w3.org/2000/svg">
<path fill-rule="evenodd" clip-rule="evenodd" d="M27.0497 27.1696C27.4143 27.106 27.7841 27.0742 28.1546 27.0745C28.9337 27.0745 29.6792 27.2135 30.366 27.4671L33.0984 23.7205L33.2027 23.7775C32.1897 22.686 31.6307 21.2722 31.6328 19.8075C31.6328 16.5143 34.4014 13.8447 37.8164 13.8447C41.2315 13.8447 44 16.5143 44 19.8075C44 23.1006 41.2315 25.7702 37.8164 25.7702C37.1069 25.7702 36.4251 25.6548 35.7903 25.4428L33.0251 29.3629C33.8779 30.411 34.3404 31.7051 34.3382 33.0373C34.3382 36.3304 31.5697 39 28.1546 39C24.7395 39 21.971 36.3304 21.971 33.0373C21.971 31.2173 22.8166 29.5878 24.1496 28.494L20.1372 20.8021C19.7233 20.8846 19.3018 20.9259 18.8792 20.9255C18.3471 20.9259 17.8171 20.8602 17.3024 20.7298L14.4587 25.5615C15.6348 26.6469 16.3671 28.1758 16.3671 29.8696C16.3671 33.1627 13.5986 35.8323 10.1836 35.8323C6.7685 35.8323 4 33.1627 4 29.8696C4 26.5765 6.7685 23.9068 10.1836 23.9068C10.6966 23.9068 11.195 23.967 11.6715 24.0805L14.5331 19.2041C13.3986 18.1235 12.6957 16.6224 12.6957 14.9627C12.6957 11.6696 15.4642 9 18.8792 9C22.2943 9 25.0628 11.6696 25.0628 14.9627C25.0628 16.7447 24.2522 18.344 22.9673 19.4366L27.0497 27.1696ZM37.8164 22.7888C39.5241 22.7888 40.9082 21.4541 40.9082 19.8075C40.9082 18.1608 39.5241 16.8261 37.8164 16.8261C36.1088 16.8261 34.7246 18.1608 34.7246 19.8075C34.7246 21.4541 36.1088 22.7888 37.8164 22.7888ZM10.1836 32.8509C11.8912 32.8509 13.2754 31.5162 13.2754 29.8696C13.2754 28.2229 11.8912 26.8882 10.1836 26.8882C8.47594 26.8882 7.09179 28.2229 7.09179 29.8696C7.09179 31.5162 8.47594 32.8509 10.1836 32.8509ZM18.8792 17.9441C20.5869 17.9441 21.971 16.6094 21.971 14.9627C21.971 13.3161 20.5869 11.9814 18.8792 11.9814C17.1716 11.9814 15.7874 13.3161 15.7874 14.9627C15.7874 16.6094 17.1716 17.9441 18.8792 17.9441ZM28.1546 36.0186C29.8622 36.0186 31.2464 34.6839 31.2464 33.0373C31.2464 31.3906 29.8622 30.0559 28.1546 30.0559C26.447 30.0559 25.0628 31.3906 25.0628 33.0373C25.0628 34.6839 26.447 36.0186 28.1546 36.0186Z" fill="#9747FF"/>
</svg>
