<svg width="31" height="31" viewBox="0 0 31 31" fill="none" xmlns="http://www.w3.org/2000/svg">
<g clip-path="url(#clip0_47_142)">
<path d="M3.90361 27.7245C3.08618 27.7245 2.38666 27.4337 1.80505 26.8521C1.22344 26.2705 0.932143 25.5705 0.931152 24.7521V6.91737C0.931152 6.09994 1.22245 5.40043 1.80505 4.81882C2.38766 4.23721 3.08717 3.94591 3.90361 3.94492H11.5948C11.9912 3.94492 12.3692 4.01923 12.7288 4.16785C13.0885 4.31647 13.4041 4.52702 13.6756 4.7995L15.7934 6.91737H27.6833C28.5007 6.91737 29.2007 7.20867 29.7833 7.79127C30.3659 8.37387 30.6567 9.07339 30.6557 9.88982V24.7521C30.6557 25.5695 30.3649 26.2695 29.7833 26.8521C29.2017 27.4347 28.5017 27.7255 27.6833 27.7245H3.90361ZM3.90361 24.7521H27.6833V9.88982H14.5673L11.5948 6.91737H3.90361V24.7521ZM18.7659 18.8072V20.2934C18.7659 20.7145 18.9086 21.0677 19.1939 21.3531C19.4793 21.6384 19.832 21.7806 20.2521 21.7796C20.6722 21.7786 21.0254 21.636 21.3118 21.3516C21.5981 21.0672 21.7403 20.7145 21.7383 20.2934V18.8072H23.2246C23.6457 18.8072 23.9989 18.6645 24.2842 18.3792C24.5696 18.0938 24.7118 17.7411 24.7108 17.321C24.7098 16.9009 24.5671 16.5481 24.2828 16.2628C23.9984 15.9774 23.6457 15.8347 23.2246 15.8347H21.7383V14.3485C21.7383 13.9274 21.5957 13.5747 21.3103 13.2903C21.025 13.0059 20.6722 12.8633 20.2521 12.8623C19.832 12.8613 19.4793 13.004 19.1939 13.2903C18.9086 13.5767 18.7659 13.9294 18.7659 14.3485V15.8347H17.2797C16.8586 15.8347 16.5058 15.9774 16.2215 16.2628C15.9371 16.5481 15.7944 16.9009 15.7934 17.321C15.7924 17.7411 15.9351 18.0943 16.2215 18.3806C16.5078 18.667 16.8605 18.8092 17.2797 18.8072H18.7659Z" fill="#6D52AF"/>
</g>
<defs>
<clipPath id="clip0_47_142">
<rect width="30" height="31" fill="white" transform="translate(0.931152)"/>
</clipPath>
</defs>
</svg>
