<svg width="31" height="31" viewBox="0 0 31 31" fill="none" xmlns="http://www.w3.org/2000/svg">
<g clip-path="url(#clip0_47_402)">
<path d="M3.90361 27.7245C3.08618 27.7245 2.38666 27.4337 1.80505 26.8521C1.22344 26.2705 0.932143 25.5705 0.931152 24.7521V6.91737C0.931152 6.09994 1.22245 5.40043 1.80505 4.81882C2.38766 4.23721 3.08717 3.94591 3.90361 3.94492H11.5948C11.9912 3.94492 12.3692 4.01923 12.7288 4.16785C13.0885 4.31647 13.4041 4.52702 13.6756 4.7995L15.7934 6.91737H27.6833C28.5007 6.91737 29.2007 7.20867 29.7833 7.79127C30.3659 8.37387 30.6567 9.07339 30.6557 9.88982V24.7521C30.6557 25.5695 30.3649 26.2695 29.7833 26.8521C29.2017 27.4347 28.5017 27.7255 27.6833 27.7245H3.90361ZM3.90361 24.7521H27.6833V9.88982H14.5673L11.5948 6.91737H3.90361V24.7521Z" fill="#6D52AF"/>
</g>
<defs>
<clipPath id="clip0_47_402">
<rect width="30" height="31" fill="white" transform="translate(0.931152)"/>
</clipPath>
</defs>
</svg>
