<svg width="25" height="24" viewBox="0 0 25 24" fill="none" xmlns="http://www.w3.org/2000/svg">
<path d="M14.5491 22.3256H10.1183V24H14.5491V22.3256ZM2.08745 14.2326V9.76748H0.425905V14.2326H2.08745ZM22.5799 13.7448V14.2326H24.2414V13.7448H22.5799ZM15.536 3.75187L19.9214 7.72916L21.0324 6.48339L16.6481 2.5061L15.536 3.75187ZM24.2414 13.7448C24.2414 11.8594 24.258 10.665 23.7873 9.5978L22.2686 10.2798C22.5633 10.9474 22.5799 11.712 22.5799 13.7448H24.2414ZM19.9214 7.72916C21.4201 9.08878 21.974 9.61343 22.2686 10.2798L23.7873 9.5978C23.3154 8.52953 22.4237 7.74479 21.0324 6.48339L19.9214 7.72916ZM10.1515 1.67448C11.9039 1.67448 12.5652 1.68787 13.1534 1.91559L13.7493 0.352806C12.8055 -0.0133331 11.7776 6.2272e-05 10.1515 6.2272e-05V1.67448ZM16.6481 2.50722C15.4452 1.41662 14.6931 0.716712 13.7493 0.352806L13.1545 1.91559C13.7438 2.14331 14.24 2.57643 15.536 3.75187L16.6481 2.50722ZM10.1183 22.3256C8.00588 22.3256 6.50606 22.3234 5.36624 22.1693C4.253 22.0186 3.61054 21.7351 3.14198 21.2629L1.96782 22.4461C2.79638 23.2833 3.84758 23.6528 5.14581 23.8292C6.41966 24.0022 8.05351 24 10.1183 24V22.3256ZM0.425905 14.2326C0.425905 16.3133 0.423689 17.9587 0.595383 19.2435C0.770399 20.5518 1.13815 21.6112 1.96671 22.4473L3.14087 21.264C2.67342 20.7907 2.39207 20.1433 2.24253 19.0203C2.08967 17.8739 2.08745 16.3613 2.08745 14.2326H0.425905ZM14.5491 24C16.6138 24 18.2466 24.0022 19.5215 23.8292C20.8197 23.6528 21.8709 23.2822 22.7006 22.4473L21.5264 21.264C21.0568 21.7351 20.4143 22.0186 19.3 22.1693C18.1624 22.3234 16.6614 22.3256 14.5491 22.3256V24ZM22.5799 14.2326C22.5799 16.3613 22.5777 17.8739 22.4248 19.0214C22.2753 20.1433 21.9939 20.7907 21.5253 21.2629L22.6995 22.4461C23.5303 21.6112 23.8969 20.5518 24.0719 19.2435C24.2436 17.9598 24.2414 16.3133 24.2414 14.2326H22.5799ZM2.08745 9.76748C2.08745 7.63874 2.08967 6.1273 2.24253 4.97865C2.39207 3.8568 2.67342 3.20936 3.14198 2.73717L1.96782 1.55392C1.13705 2.38889 0.770399 3.44824 0.595383 4.75652C0.423689 6.04023 0.425905 7.68674 0.425905 9.76748H2.08745ZM10.1515 6.2272e-05C8.07456 6.2272e-05 6.43406 -0.00217028 5.15467 0.170853C3.85091 0.347224 2.79638 0.717828 1.96671 1.5528L3.14087 2.73606C3.61054 2.26499 4.25411 1.98145 5.3751 1.83076C6.51935 1.67671 8.02804 1.67448 10.1515 1.67448V6.2272e-05Z" fill="white"/>
<path d="M13.4418 1.39551V4.1862C13.4418 6.81726 13.4418 8.13335 14.2526 8.95046C15.0634 9.76758 16.3694 9.76758 18.9803 9.76758H23.4111" stroke="white" stroke-width="1.5"/>
</svg>
