<svg width="24" height="24" viewBox="0 0 24 24" fill="none" xmlns="http://www.w3.org/2000/svg">
<path d="M10.2418 21.4154C7.37936 21.4154 4.95704 20.427 2.97486 18.4504C0.99267 16.4738 0.00105128 14.0596 8.33685e-07 11.2077C-0.00104961 8.35581 0.990569 5.94156 2.97486 3.96494C4.95914 1.98831 7.38146 1 10.2418 1C13.1022 1 15.525 1.98831 17.5104 3.96494C19.4957 5.94156 20.4868 8.35581 20.4836 11.2077C20.4836 12.3593 20.2998 13.4455 19.9322 14.4663C19.5645 15.4871 19.0655 16.39 18.4353 17.1752L23.5667 21.3696C23.8556 21.6575 24 22.0239 24 22.4688C24 22.9138 23.8556 23.2802 23.5667 23.5681C23.2778 23.856 22.9102 24 22.4637 24C22.0173 24 21.6496 23.856 21.3608 23.5681L16.2293 19.3738C15.4415 20.002 14.5355 20.4993 13.5113 20.8657C12.4871 21.2321 11.3973 21.4154 10.2418 21.4154ZM10.2418 19.1945C12.2114 19.1945 14.8089 17.5877 16.1881 16.2142C17.5673 14.8406 18.2564 13.1717 18.2554 11.2077C18.2543 9.24362 17.5652 6.65532 16.1881 5.28278C14.811 3.91024 12.2135 3.22292 10.2418 3.22082C8.27014 3.21873 5.67318 3.90605 4.2971 5.28278C2.92102 6.65951 2.2314 9.24781 2.22825 11.2077C2.2251 13.1676 2.91472 15.7564 4.2971 17.1342C5.67948 18.5119 8.27644 19.1987 10.2418 19.1945Z" fill="#6D52AF"/>
</svg>
