<svg width="48" height="48" viewBox="0 0 48 48" fill="none" xmlns="http://www.w3.org/2000/svg">
<path d="M21.6898 29.25C22.3155 29.875 23.1039 30.169 24.055 30.132C25.0061 30.095 25.6944 29.751 26.1199 29.1L32.4648 19.6125C32.6901 19.2625 32.659 18.9435 32.3717 18.6555C32.0844 18.3675 31.765 18.3365 31.4136 18.5625L21.915 24.9C21.2643 25.35 20.9079 26.0315 20.8458 26.9445C20.7837 27.8575 21.065 28.626 21.6898 29.25ZM13.6554 36C13.1048 36 12.5982 35.881 12.1356 35.643C11.6731 35.405 11.3037 35.049 11.0274 34.575C10.3766 33.4 9.87602 32.1815 9.52561 30.9195C9.1752 29.6575 9 28.351 9 27C9 24.925 9.39446 22.975 10.1834 21.15C10.9723 19.325 12.042 17.7375 13.3926 16.3875C14.7432 15.0375 16.3325 13.969 18.1607 13.182C19.9888 12.395 21.9411 12.001 24.0175 12C26.0699 12 27.9971 12.3875 29.7992 13.1625C31.6013 13.9375 33.1781 14.994 34.5297 16.332C35.8813 17.67 36.9575 19.2325 37.7585 21.0195C38.5594 22.8065 38.9724 24.725 38.9974 26.775C39.0224 28.15 38.8663 29.494 38.5289 30.807C38.1915 32.12 37.6719 33.376 36.97 34.575C36.6947 35.05 36.3258 35.4065 35.8633 35.6445C35.4007 35.8825 34.8931 36.001 34.3405 36H13.6554Z" fill="#9747FF"/>
</svg>
