<svg width="24" height="24" viewBox="0 0 24 24" fill="none" xmlns="http://www.w3.org/2000/svg">
<path fill-rule="evenodd" clip-rule="evenodd" d="M12 15.25C11.8917 15.2501 11.7847 15.2267 11.6863 15.1815C11.5879 15.1362 11.5005 15.0702 11.43 14.988L8.43 11.488C8.30058 11.3368 8.2365 11.1404 8.25188 10.942C8.26726 10.7436 8.36083 10.5594 8.512 10.43C8.66318 10.3006 8.85957 10.2365 9.05798 10.2519C9.2564 10.2673 9.44058 10.3608 9.57 10.512L11.25 12.472V1.5C11.25 1.30109 11.329 1.11032 11.4697 0.96967C11.6103 0.829018 11.8011 0.75 12 0.75C12.1989 0.75 12.3897 0.829018 12.5303 0.96967C12.671 1.11032 12.75 1.30109 12.75 1.5V12.473L14.43 10.512C14.4941 10.4371 14.5723 10.3756 14.6601 10.331C14.748 10.2864 14.8438 10.2595 14.942 10.2519C15.0403 10.2443 15.139 10.2561 15.2327 10.2866C15.3264 10.3172 15.4131 10.3659 15.488 10.43C15.5629 10.4941 15.6244 10.5723 15.669 10.6601C15.7136 10.748 15.7405 10.8438 15.7481 10.942C15.7557 11.0403 15.7439 11.139 15.7134 11.2327C15.6828 11.3264 15.6341 11.4131 15.57 11.488L12.57 14.988C12.4995 15.0702 12.4121 15.1362 12.3137 15.1815C12.2153 15.2267 12.1083 15.2501 12 15.25ZM6.996 7.752C7.19491 7.75094 7.3861 7.82894 7.5275 7.96884C7.6689 8.10874 7.74894 8.29909 7.75 8.498C7.75106 8.69691 7.67306 8.8881 7.53316 9.0295C7.39326 9.1709 7.20291 9.25094 7.004 9.252C5.911 9.258 5.136 9.286 4.547 9.394C3.981 9.499 3.652 9.666 3.409 9.909C3.132 10.186 2.952 10.575 2.853 11.309C2.752 12.064 2.75 13.065 2.75 14.5V15.5C2.75 16.936 2.752 17.937 2.853 18.692C2.952 19.426 3.133 19.814 3.409 20.092C3.686 20.368 4.074 20.548 4.809 20.647C5.563 20.749 6.565 20.75 8 20.75H16C17.435 20.75 18.436 20.749 19.192 20.647C19.926 20.548 20.314 20.368 20.591 20.091C20.868 19.814 21.048 19.426 21.147 18.692C21.248 17.937 21.25 16.936 21.25 15.5V14.5C21.25 13.065 21.248 12.064 21.147 11.308C21.048 10.575 20.867 10.186 20.591 9.909C20.347 9.666 20.019 9.499 19.453 9.394C18.864 9.286 18.089 9.258 16.996 9.252C16.8975 9.25147 16.8001 9.23155 16.7093 9.19338C16.6185 9.1552 16.5361 9.09952 16.4668 9.0295C16.3976 8.95949 16.3428 8.87651 16.3056 8.78532C16.2684 8.69412 16.2495 8.59649 16.25 8.498C16.2505 8.39951 16.2704 8.30209 16.3086 8.21129C16.3468 8.1205 16.4025 8.03811 16.4725 7.96884C16.5425 7.89957 16.6255 7.84477 16.7167 7.80756C16.8079 7.77035 16.9055 7.75147 17.004 7.752C18.086 7.758 18.987 7.784 19.724 7.919C20.482 8.059 21.127 8.324 21.652 8.849C22.254 9.45 22.512 10.209 22.634 11.109C22.75 11.975 22.75 13.078 22.75 14.445V15.555C22.75 16.923 22.75 18.025 22.634 18.892C22.512 19.792 22.254 20.55 21.652 21.152C21.05 21.754 20.292 22.012 19.392 22.134C18.525 22.25 17.422 22.25 16.055 22.25H7.945C6.578 22.25 5.475 22.25 4.608 22.134C3.708 22.013 2.95 21.754 2.348 21.152C1.746 20.55 1.488 19.792 1.367 18.892C1.25 18.025 1.25 16.922 1.25 15.555V14.445C1.25 13.078 1.25 11.975 1.367 11.108C1.487 10.208 1.747 9.45 2.348 8.848C2.873 8.324 3.518 8.058 4.276 7.919C5.013 7.784 5.914 7.758 6.996 7.752Z" fill="#6D52AF"/>
</svg>
